<svg xmlns="http://www.w3.org/2000/svg" enable-background="new 0 0 55 55" viewBox="0 0 55 55"><path fill="#e7e7e7" d="M38.2602806,48.2393417l-9.3499775,1.289978l-14.9400024,2.0499878
							c-2.3200073,0.3200073-4.460022-1.2999878-4.7800293-3.6199951l-4.9400024-36.039978
							C3.9303226,9.5993261,5.5503178,7.459311,7.8702641,7.1393647l7.4400024-1.0200195l11.3600464-1.5599976l5.4899921-0.75
							c1.3099976-0.1799927,2.5599976,0.2600098,3.4599609,1.0800171c0.7000122,0.6499634,1.1800537,1.5299683,1.3200073,2.539978
							l4.9400024,36.039978C42.2002831,45.7893295,40.5802879,47.9293442,38.2602806,48.2393417z"/><path fill="#d5d3d4" d="M38.2602806,48.2393417l-9.3499775,1.289978h-0.0200195l-14.9199829,2.0499878
							c-0.2000122,0.0300293-0.3900146,0.0400391-0.5900269,0.0400391c-2.0799561,0-3.8999634-1.5400391-4.1900024-3.6600342
							c-0.2299805-1.7099609,0.960022-3.2799683,2.6700439-3.5199585l1.3999634-0.1900024l5.9400024-0.8200073
							c7.7200317-1.0599976,13.1099873-8.1699829,12.0499878-15.8800068L28.6302738,8.4593115
							c-0.1999512-1.4799809,0.4100342-2.8899541,1.4899902-3.769959c0.5700073-0.460022,1.2600098-0.7700195,2.040041-0.8800049
							c1.2999878-0.1799927,2.5499878,0.25,3.4500122,1.0800171h0.0099487c0.4200439,0.3899536,0.7700195,0.8699951,1,1.4099731
							c0.0400391,0.0999756,0.0800171,0.1900024,0.1100464,0.2799683c0.0999756,0.2700195,0.1699829,0.5500488,0.2099609,0.8500366
							l4.9400024,36.039978C42.2002831,45.7893295,40.5802879,47.9293442,38.2602806,48.2393417z"/><path fill="#d5d3d4" d="M38.2602806,48.2393417l-9.3499775,1.289978l-11.6000366-0.4299927
							c-0.289978-0.0100098-0.5699463-0.0499878-0.8499756-0.1199951c-0.539978-0.1300049-1.0499878-0.3699951-1.4899902-0.6900024
							c-0.3800049-0.2799683-0.710022-0.6400146-0.9799805-1.0299683c-0.4700317-0.6800537-0.75-1.4900513-0.75-2.3800049
							v-0.1700439l1.3199463-36.3499756c0.0300293-0.8300176,0.3000488-1.5999761,0.75-2.2399907l11.3600464-1.5599976
							l8.9499531,0.3300171c0.7000122,0.6499634,1.1800537,1.5299683,1.3200073,2.539978l4.9400024,36.039978
							C42.2002831,45.7893295,40.5802879,47.9293442,38.2602806,48.2393417z"/><path fill="#c4c4c4" d="M38.2602806,48.2393417l-9.3499775,1.289978h-0.0200195l-11.5800171-0.4299927
							c-0.289978-0.0100098-0.5699463-0.0499878-0.8499756-0.1199951c-0.539978-0.1300049-1.0499878-0.3699951-1.4899902-0.6900024
							c-0.3800049-0.2799683-0.710022-0.6400146-0.9799805-1.0299683c-0.4700317-0.6800537-0.75-1.4900513-0.75-2.3800049
							v-0.1700439l0.0199585-0.4599609l5.9400024-0.8200073c7.7200317-1.0599976,13.1099873-8.1699829,12.0499878-15.8800068
							L28.6302738,8.4593115c-0.1999512-1.4799809,0.4100342-2.8899541,1.4899902-3.769959l5.4900532,0.2000122h0.0099487
							c0.4200439,0.3899536,0.7700195,0.8699951,1,1.4099731c0.0400391,0.0999756,0.0800171,0.1900024,0.1100464,0.2799683
							c0.0999756,0.2700195,0.1699829,0.5500488,0.2099609,0.8500366l4.9400024,36.039978
							C42.2002831,45.7893295,40.5802879,47.9293442,38.2602806,48.2393417z"/><path fill="#e7e7e7" d="M36.3172264,46.7264099c-0.4643555,0-0.8686523-0.3427734-0.9331055-0.8154297
						c-0.0708008-0.515625,0.2900391-0.9912109,0.8061523-1.0625c0.5839844-0.0800781,1.1020508-0.3828125,1.4589844-0.8525391
						c0.3564453-0.4697266,0.5083008-1.0498047,0.4282227-1.6347656c-0.0708008-0.515625,0.2900391-0.9912109,0.8056641-1.0625
						c0.5180664-0.0683594,0.9921875,0.2910156,1.0625,0.8066406c0.1489258,1.0830078-0.1333008,2.1591797-0.7944336,3.0302734
						c-0.6606445,0.8710938-1.621582,1.4335938-2.7050781,1.5820313
						C36.4026756,46.7234802,36.3597069,46.7264099,36.3172264,46.7264099z"/><path fill="#f4f4f4" d="M10.0413475,26.4060955c-0.7597694,0-1.421875-0.5605469-1.5283203-1.3349609L7.0608788,14.4891043
					c-0.1157227-0.8447266,0.4750977-1.6240234,1.3203125-1.7402344c0.8476563-0.1123047,1.6240234,0.4746094,1.7402344,1.3203125
					l1.4521484,10.5820303c0.1157227,0.8447266-0.4750977,1.6240234-1.3203125,1.7402344
					C10.1819725,26.4012127,10.1111717,26.4060955,10.0413475,26.4060955z"/><path fill="#e23e2d" d="M27.9625759,26.6558189l-2.3606701,8.384407c-0.3909645,1.3885841-2.2493305,1.6436501-2.9999619,0.4117508
				l-4.5323734-7.4383221c-0.2387371-0.3918056-0.3037205-0.8652687-0.1793747-1.3069096l2.3606701-8.3844032
				c0.3909626-1.388588,2.2493305-1.643652,2.9999599-0.4117527l4.5323734,7.4383202
				C28.0219383,25.7407169,28.0869217,26.21418,27.9625759,26.6558189z"/><path fill="#fc4a32" d="M27.7831841 25.3488693l-4.5323887-7.4382896c-.3609047-.5922928-.9774628-.8327999-1.5642872-.7769337l2.618248 19.0761967c.5801849-.1042404 1.1091442-.5019722 1.297121-1.1695976l2.3606853-8.3844509C28.0868931 26.2141914 28.0219078 25.7407131 27.7831841 25.3488693zM9.6089439 12.6606398l-.5896397 2.0942268c-.0976534.3468361-.5618296.4105453-.7493191.1028452L7.1379051 12.999795c-.0596313-.0978642-.0758624-.2161236-.0448041-.3264351l.5896401-2.0942268c.0976534-.3468361.5618296-.4105453.7493191-.1028452l1.1320801 1.8579168C9.6237717 12.4320688 9.6400032 12.5503283 9.6089439 12.6606398zM38.4174271 42.4806519l-.5896416 2.0942268c-.0976524.3468361-.5618286.4105453-.749321.1028481l-1.1320801-1.8579178c-.0596313-.0978661-.0758591-.2161255-.0448036-.3264351l.5896416-2.0942268c.0976524-.3468361.5618286-.4105453.749321-.1028481l1.1320763 1.8579178C38.432251 42.2520828 38.4484825 42.3703423 38.4174271 42.4806519z"/><path fill="#e7e7e7" d="M45.0715218,49.1012573l-24.5080662-0.8955612
							c-2.3374786-0.0854149-4.1631374-2.0495567-4.0777225-4.3870354l1.328558-36.3576775
							c0.0854149-2.3374796,2.0495586-4.1631389,4.3870392-4.0777245l24.5080662,0.8955586
							c2.3374786,0.0854144,4.1631393,2.0495586,4.0777245,4.3870382l-1.3285599,36.3576775
							C49.3731461,47.3610115,47.4090004,49.1866684,45.0715218,49.1012573z"/><path fill="#d5d3d4" d="M46.7094002,4.2787657l-0.0000076-0.0000005
							c-2.279171-0.0832839-4.1943169,1.6968331-4.2776031,3.9760032L41.7282906,27.506897
							c-0.2843666,7.7820663-6.8235016,13.8601532-14.6055679,13.5757866l-7.4025574-0.2705002
							c-1.7233696-0.0629768-3.1714878,1.2830429-3.2344627,3.0064125v0.0000076
							c-0.0854149,2.3374939,1.7402573,4.301651,4.0777512,4.3870659l24.5080719,0.8955574
							c2.3374939,0.0854187,4.301651-1.7402534,4.3870697-4.0777512l1.3285561-36.3576431
							C50.8725662,6.3283381,49.0468941,4.364181,46.7094002,4.2787657z"/><path fill="#e7e7e7" d="M43.6980858,47.2879333c-0.0507813,0-0.1020508-0.0009766-0.152832-0.0029297
						c-0.5205078-0.0195313-0.9272461-0.4560547-0.9082031-0.9765625s0.4765625-0.8955078,0.9765625-0.9082031
						c0.5947266,0.0234375,1.1518555-0.1875,1.5839844-0.5888672c0.4321289-0.4023438,0.6816406-0.9482422,0.703125-1.5371094
						c0.0195313-0.5205078,0.4633789-0.9179688,0.9765625-0.9082031c0.5205078,0.0195313,0.9272461,0.4560547,0.9082031,0.9765625
						c-0.0400391,1.0927734-0.5029297,2.1044922-1.3041992,2.8496094
						C45.7181053,46.9021912,44.7347069,47.2879333,43.6980858,47.2879333z"/><path fill="#f4f4f4" d="M21.2972069,22.7566814c-0.019043,0-0.0380859-0.0009766-0.0576172-0.0009766
					c-0.8520508-0.03125-1.5180664-0.7480469-1.4868164-1.6005859L20.14291,10.4812918
					c0.0307617-0.8515625,0.7412109-1.4912109,1.6000977-1.4873047c0.8520508,0.03125,1.5180664,0.7480469,1.4868164,1.6005859
					l-0.3901367,10.6738272C22.8094139,22.101408,22.1243553,22.7566814,21.2972069,22.7566814z"/><path fill="#fc4a32" d="M35.5884056 20.1291103c.8689156-.7826271 1.7897377-1.5418472 2.8791389-1.9644814 1.3703537-.5316296 2.9578247-.4751759 4.286953.1524525 1.3291283.6276264 2.3813171 1.8176479 2.8414307 3.2136402.5352592 1.6239986.2689743 3.4368248-.4461441 4.9900417-.7151222 1.5532169-1.8475761 2.8775368-3.0665245 4.0767231-2.1473198 2.1125126-4.5984955 3.8972645-7.1591225 5.4837322-.0860825.0533333-.1794739.1083832-.2805748.102726-.1026764-.0057487-.1902924-.0727692-.2705269-.1370964-2.4555264-1.968708-4.7793503-4.126379-6.7069798-6.6142826-.885891-1.1433754-1.6924057-2.3666592-2.1987057-3.7215672-.5062981-1.3549042-.6984596-2.8565369-.3458691-4.2593155.5054379-2.0108719 2.3498745-3.9491329 4.4678726-4.2378483 2.2675629-.3091049 4.7465115 1.0930309 5.9501247 2.9594154C35.5557709 20.1585312 35.5720787 20.143816 35.5884056 20.1291103zM22.9581604 7.1469717c.1549358-.1395507.3191299-.2749276.5133801-.3502874.2443485-.0947948.5274105-.0847287.7644081.0271835.2369976.1119127.424614.3241057.5066566.5730257.0954437.2895761.0479622.6128216-.0795517.8897762s-.3294411.5130949-.546793.726923c-.3828888.3766832-.8199596.6949224-1.2765465.9778061-.0153484.00951-.0320015.0193262-.0500298.0183172-.0183086-.0010252-.0339298-.0129757-.0482368-.0244455-.4378452-.3510408-.8522072-.7357769-1.1959248-1.1793957-.1579628-.2038755-.3017731-.4219999-.3920517-.6635942-.0902786-.2415934-.1245422-.5093503-.0616722-.75948.0901241-.3585596.4190063-.7041717.796669-.7556529.4043293-.0551167.8463516.1948991 1.0609684.5276947C22.9523411 7.1522179 22.9552498 7.1495938 22.9581604 7.1469717z"/><g><path fill="#fc4a32" d="M45.008316,43.3553581c0.1549377-0.1395493,0.3191299-0.2749252,0.513382-0.3502846
			c0.2443466-0.0947952,0.5274124-0.0847282,0.7644081,0.0271835c0.2369995,0.1119118,0.424614,0.3241043,0.5066566,0.5730247
			c0.0954437,0.2895775,0.0479622,0.6128197-0.0795517,0.8897743c-0.1275139,0.2769585-0.3294411,0.5130959-0.5467949,0.7269249
			c-0.3828888,0.3766823-0.8199577,0.6949234-1.2765465,0.9778061c-0.0153465,0.00951-0.0320015,0.0193253-0.0500298,0.0183182
			c-0.0183067-0.0010262-0.0339279-0.0129776-0.0482368-0.0244484c-0.4378433-0.3510399-0.8522072-0.735775-1.1959229-1.1793938
			c-0.1579628-0.2038765-0.3017731-0.4220009-0.3920517-0.6635933c-0.0902786-0.2415962-0.1245422-0.5093498-0.0616722-0.7594833
			c0.090126-0.3585587,0.4190063-0.7041702,0.796669-0.7556496c0.4043274-0.0551186,0.8463516,0.1948967,1.0609665,0.5276947
			C45.0024986,43.3606071,45.0054054,43.3579826,45.008316,43.3553581z"/></g><g><path fill="#e23e2d" d="M45.5959129,21.5307217c-0.460083-1.3959961-1.5122681-2.5860596-2.8414307-3.2136841
			c-1.2718506-0.6005859-2.7757568-0.6625366-4.104187-0.2021484v0.0000114c0,5.8732471-4.7612038,10.6344604-10.6344509,10.6344719
			l-0.8552361,0.0000019c-0.0018959,0.0037346-0.0012341,0.0024319-0.00313,0.0061665
			c2.0207329,2.7765827,4.5399418,5.1461544,7.2155342,7.291296c0.0802612,0.0643311,0.1678467,0.1313477,0.2705688,0.137085
			c0.1010742,0.0056763,0.194458-0.0493774,0.2805786-0.1027222c2.5606079-1.5864868,5.0117798-3.3712158,7.1591187-5.4837055
			c1.2189331-1.1992188,2.3513794-2.5235596,3.0665283-4.0767212
			C45.8648949,24.9675503,46.1311913,23.1546841,45.5959129,21.5307217z"/></g><g><path fill="#ff6252" d="M26.983242,23.0437908c-0.0615234,0-0.1245117-0.0078125-0.1870117-0.0234375
			c-0.4106445-0.1035156-0.659668-0.5195313-0.5566406-0.9296875c0.484375-1.9277344,2.230957-3.5693359,4.0625-3.8193359
			c0.4208984-0.0576172,0.8056641,0.2363281,0.862793,0.6552734s-0.2363281,0.8056641-0.6557617,0.8623047
			c-1.2260742,0.1679688-2.4487305,1.3427734-2.7832031,2.6748047
			C27.6385155,22.8113689,27.3260155,23.0437908,26.983242,23.0437908z"/></g></svg>