<svg xmlns="http://www.w3.org/2000/svg" viewBox="0 0 67 67"><path fill="#51a3f1" d="m39.7 4.6 17 43.6c1 2.5-.3 5.4-2.8 6.3l-27 10.7c-2.5 1-5.4-.3-6.3-2.8l-17-43.6c-1-2.5.3-5.4 2.8-6.3l27-10.7c2.5-.9 5.4.3 6.3 2.8z"/><path fill="#7dc4ff" d="m27.2 4.3 4.7 12.1c5.5 14.1-1.5 29.9-15.5 35.4l-12.9-33c-1-2.5.3-5.4 2.8-6.3l20.9-8.2z"/><path fill="#4087f1" d="m39.7 4.6 17 43.6c1 2.5-.3 5.4-2.8 6.3l-27 10.7c-2 .8-4.1.2-5.4-1.3l13.2-5.2c10.7-4.2 16.1-16.3 11.9-27L34.8 1.5c2.1-.1 4.1 1.1 4.9 3.1z"/><path fill="#eae4dd" d="M63.8 10v46.8c0 2.7-2.2 4.9-4.9 4.9H29.8c-2.7 0-4.9-2.2-4.9-4.9V10c0-2.7 2.2-4.9 4.9-4.9h29.1c2.7 0 4.9 2.2 4.9 4.9z"/><path fill="#f4efea" d="M52.3 5.1v13c0 15.1-12.2 27.3-27.3 27.3V10c0-2.7 2.2-4.9 4.9-4.9h22.4z"/><path fill="#dfd9d2" d="M63.8 10v46.8c0 2.7-2.2 4.9-4.9 4.9H29.8c-2.1 0-3.9-1.3-4.6-3.2h14.2c11.5 0 20.9-9.3 20.9-20.9V5.3c2.1.6 3.5 2.5 3.5 4.7z"/><path fill="#fffbf4" d="M30.8 39.1v5.4c0 .8-.7 1.5-1.5 1.5s-1.5-.7-1.5-1.5v-5.4c0-.9.7-1.5 1.5-1.5s1.5.7 1.5 1.5zm0-15.3v9.6c0 .8-.7 1.5-1.5 1.5s-1.5-.7-1.5-1.5v-9.6c0-.8.7-1.5 1.5-1.5.8-.1 1.5.6 1.5 1.5z"/><path fill="#6f362a" d="m51.2 33.4-6.8 11.2-6.8-11.2 6.8-11.2zM37.6 15l-3 4.9-2.9-4.9 2.9-4.8zM51.2 51.7l2.9-4.8 3 4.8-3 4.9z"/></svg>